# xmcd
#
# Track frame offsets:
# 150
# 12590
# 29339
# 41360
# 57025
# 72818
# 86620
# 106611
# 119514
# 137330
# 152582
# 172128
# 188434
# 203684
# 215789
# 230077
# 243109
# 255606
# 269818
# 284623
# 303568
# 317595
# 332091
#
# Disc length: 4639 seconds
#
# Revision: 0
# Processed by: cddbd v1.5.2PL0 Copyright (c) Steve Scherf et al.
# Submitted via: Audion 3.0.2 (http://www.panic.com/audion/)
#
DISCID=49121d17
DTITLE=311 - 311 mix
DYEAR=1900
DGENRE=
TTITLE0=311-1
TTITLE1=311-2
TTITLE2=311-3
TTITLE3=311-4
TTITLE4=311-5
TTITLE5=311-6
TTITLE6=311-7
TTITLE7=311-8
TTITLE8=311-9
TTITLE9=311-10
TTITLE10=311-11
TTITLE11=311-12
TTITLE12=311-13
TTITLE13=311-14
TTITLE14=311-15
TTITLE15=311-16
TTITLE16=311-17
TTITLE17=311-18
TTITLE18=311-19
TTITLE19=311-20
TTITLE20=311-21
TTITLE21=311-22
TTITLE22=311-23
EXTD=
EXTT0=
EXTT1=
EXTT2=
EXTT3=
EXTT4=
EXTT5=
EXTT6=
EXTT7=
EXTT8=
EXTT9=
EXTT10=
EXTT11=
EXTT12=
EXTT13=
EXTT14=
EXTT15=
EXTT16=
EXTT17=
EXTT18=
EXTT19=
EXTT20=
EXTT21=
EXTT22=
PLAYORDER=
